<svg width="148" height="37" viewBox="0 0 148 37" fill="none" xmlns="http://www.w3.org/2000/svg">
<path d="M24.7273 14.2201V18.4779C24.7273 19.4722 24.7273 19.9693 25.0466 20.1541C25.366 20.3388 25.7906 20.0873 26.6397 19.5841L31.3727 16.7796C31.679 16.5981 31.8321 16.5074 31.916 16.3593C32 16.2113 32 16.032 32 15.6734V9.78915C32 9.42776 32 9.24707 31.9149 9.09826C31.8299 8.94945 31.6749 8.85911 31.3651 8.67841L26.2349 5.68684C25.9251 5.50615 25.7701 5.41581 25.6 5.41581C25.4299 5.41581 25.2749 5.50615 24.9651 5.68684L20.0153 8.57324C19.1587 9.07271 18.7305 9.32245 18.7326 9.69516C18.7347 10.0679 19.1658 10.3126 20.028 10.802L24.0796 13.102C24.3955 13.2813 24.5534 13.371 24.6404 13.521C24.7273 13.6711 24.7273 13.8541 24.7273 14.2201Z" fill="white"/>
<path d="M0.629381 8.88688L15.2351 0.270242C15.5377 0.0917354 15.689 0.0024819 15.8559 5.08153e-05C16.0229 -0.00238027 16.1766 0.0824303 16.4842 0.252051L21.0609 2.77621C21.9328 3.25707 22.3687 3.4975 22.3746 3.8711C22.3804 4.2447 21.9523 4.49897 21.0959 5.00751L7.80201 12.9019C7.49627 13.0834 7.34339 13.1742 7.25958 13.3222C7.17577 13.4702 7.17577 13.6493 7.17577 14.0075V22.5922C7.17577 22.9535 7.17577 23.1342 7.26083 23.283C7.34589 23.4318 7.50084 23.5222 7.81069 23.7029L15.6569 28.2783C15.9664 28.4587 16.1211 28.5489 16.291 28.5491C16.4609 28.5492 16.6157 28.4591 16.9254 28.2791L30.0482 20.6488C30.8943 20.1568 31.3173 19.9108 31.6344 20.096C31.9516 20.2812 31.9516 20.7742 31.9516 21.7603V27.0568C31.9516 27.4182 31.9516 27.5989 31.8665 27.7477C31.7814 27.8965 31.6265 27.9869 31.3166 28.1676L16.6349 36.729C16.3251 36.9097 16.1701 37 16 37C15.8299 37 15.675 36.9097 15.3651 36.729L0.634923 28.1393C0.325074 27.9586 0.170125 27.8683 0.0850636 27.7195C0 27.5706 0 27.39 0 27.0286V9.99437C0 9.635 0 9.45531 0.0842644 9.30704C0.168529 9.15876 0.322146 9.06814 0.629381 8.88688Z" fill="url(#paint0_radial_27_22)"/>
<path d="M43 13.0955C43 11.1175 44.6511 9.5 46.6692 9.5H58.9087C59.2494 9.5 59.5116 9.75659 59.5116 10.0904V12.5047C59.5116 12.8386 59.2494 13.0955 58.9087 13.0955H47.2718C46.9311 13.0955 46.6692 13.3521 46.6692 13.686V23.2916C46.6692 23.6255 46.9311 23.8821 47.2718 23.8821H58.9087C59.2494 23.8821 59.5116 24.139 59.5116 24.4729V26.8868C59.5116 27.2206 59.2494 27.4776 58.9087 27.4776H46.6692C44.6511 27.4776 43 25.8597 43 23.8821V13.0955Z" fill="white"/>
<path d="M79.8761 27.4776H77.4388C77.0981 27.4776 76.8359 27.1951 76.8359 26.8868V15.6122C76.8359 15.2783 76.6525 15.2011 76.4167 15.458C73.0357 19.3105 69.6284 23.1885 66.2214 27.0151C66.012 27.2724 65.54 27.4776 65.2253 27.4776H62.7616C62.4209 27.4776 62.159 27.1951 62.159 26.8868V10.0904C62.159 9.7821 62.4209 9.5 62.7616 9.5H65.2253C65.54 9.5 65.8282 9.7821 65.8282 10.0904V21.3909C65.8282 21.4678 65.8807 21.5706 65.9592 21.5961C66.064 21.622 66.1429 21.5961 66.2214 21.5192L76.4167 9.96179C76.6785 9.67969 77.046 9.5 77.4388 9.5H79.8761C80.2168 9.5 80.5051 9.7821 80.5051 10.0904C80.479 15.6891 80.5051 21.2881 80.5051 26.8868C80.5051 27.1951 80.2168 27.4776 79.8761 27.4776Z" fill="white"/>
<path d="M86.7956 9.5H99.0354C99.3761 9.5 99.638 9.75659 99.638 10.0904V12.5047C99.638 12.8386 99.3761 13.0955 99.0354 13.0955H87.3981C87.0574 13.0955 86.7956 13.3521 86.7956 13.686V26.8868C86.7956 27.2206 86.5333 27.4776 86.1926 27.4776H83.7289C83.3882 27.4776 83.1264 27.2206 83.1264 26.8868V13.0955C83.1264 11.1175 84.7774 9.5 86.7956 9.5Z" fill="white"/>
<path d="M102.862 9.5H105.326C105.719 9.5 106.086 9.65417 106.322 9.96215L115.101 19.9013C118.011 16.5882 120.946 13.2752 123.882 9.96215C124.091 9.7052 124.537 9.5 124.877 9.5H127.341C127.681 9.5 127.944 9.75659 127.944 10.0904V26.8868C127.944 27.2206 127.655 27.4776 127.341 27.4776H124.877C124.537 27.4776 124.274 27.2206 124.274 26.8868V15.5867C124.274 15.2783 124.091 15.2014 123.882 15.4584C121.077 18.6173 118.299 21.7761 115.495 24.9609C115.39 25.0633 115.259 25.1406 115.101 25.1406C114.971 25.1406 114.813 25.0633 114.708 24.9609C111.904 21.7761 109.126 18.6173 106.322 15.4584C106.112 15.2014 105.928 15.2783 105.928 15.6126V26.8868C105.928 27.2206 105.666 27.4776 105.326 27.4776H102.888C102.547 27.4776 102.259 27.2206 102.259 26.8868V10.0904C102.259 9.75659 102.521 9.5 102.862 9.5Z" fill="white"/>
<path d="M139.23 13.7412L141.796 20.6374C141.849 20.7773 141.743 20.9249 141.591 20.9249H136.458C136.306 20.9249 136.2 20.7773 136.252 20.6374L138.819 13.7412C138.889 13.5531 139.16 13.5531 139.23 13.7412ZM147.965 26.7106L141.492 9.92188C141.396 9.67368 141.126 9.50712 140.818 9.50712H137.447C137.141 9.50712 136.871 9.67259 136.774 9.91933L130.211 26.708C130.14 26.8906 130.176 27.0936 130.308 27.25C130.441 27.4067 130.656 27.5 130.884 27.5H133.139C133.447 27.5 133.719 27.3327 133.813 27.083L134.933 24.1363C135.026 23.8921 135.264 23.7295 135.53 23.7295H142.515C142.783 23.7295 143.021 23.8928 143.113 24.1385L144.219 27.0809C144.313 27.3316 144.585 27.5 144.894 27.5H147.291C147.518 27.5 147.732 27.4071 147.866 27.2511C147.998 27.0958 148.036 26.8935 147.965 26.7106Z" fill="white"/>
<defs>
<radialGradient id="paint0_radial_27_22" cx="0" cy="0" r="1" gradientTransform="matrix(-30.5455 17.8121 -15.3013 -26.7682 30.5455 10.4956)" gradientUnits="userSpaceOnUse">
<stop stop-color="#A0D5F4"/>
<stop offset="1" stop-color="#0092FF"/>
</radialGradient>
</defs>
</svg>
