<svg width="22" height="22" viewBox="0 0 22 22" fill="none" xmlns="http://www.w3.org/2000/svg">
<path fill-rule="evenodd" clip-rule="evenodd" d="M11.0002 20.1663C6.67895 20.1663 4.51835 20.1663 3.17593 18.8239C1.8335 17.4815 1.8335 15.3208 1.8335 10.9997C1.8335 6.67846 1.8335 4.51786 3.17593 3.17544C4.51835 1.83301 6.67895 1.83301 11.0002 1.83301C15.3213 1.83301 17.482 1.83301 18.8244 3.17544C20.1668 4.51786 20.1668 6.67846 20.1668 10.9997C20.1668 15.3208 20.1668 17.4815 18.8244 18.8239C17.482 20.1663 15.3213 20.1663 11.0002 20.1663ZM11.0002 7.10384C10.4306 7.10384 9.96891 7.56555 9.96891 8.13509C9.96891 8.51478 9.6611 8.82259 9.28141 8.82259C8.90172 8.82259 8.59391 8.51478 8.59391 8.13509C8.59391 6.80615 9.67127 5.72884 11.0002 5.72884C12.3291 5.72884 13.4064 6.80615 13.4064 8.13509C13.4064 8.78669 13.1465 9.37901 12.7262 9.81167C12.6416 9.89867 12.561 9.97933 12.484 10.0562C12.2862 10.2539 12.1128 10.427 11.9607 10.6225C11.76 10.8804 11.6877 11.0701 11.6877 11.2288V11.9163C11.6877 12.296 11.3798 12.6038 11.0002 12.6038C10.6205 12.6038 10.3127 12.296 10.3127 11.9163V11.2288C10.3127 10.6282 10.5922 10.142 10.8757 9.77794C11.0853 9.50853 11.3489 9.24545 11.5628 9.03201C11.6273 8.96762 11.6873 8.90774 11.7399 8.85355C11.921 8.66715 12.0314 8.41471 12.0314 8.13509C12.0314 7.56555 11.5697 7.10384 11.0002 7.10384ZM11.0002 15.583C11.5064 15.583 11.9168 15.1726 11.9168 14.6663C11.9168 14.1601 11.5064 13.7497 11.0002 13.7497C10.4939 13.7497 10.0835 14.1601 10.0835 14.6663C10.0835 15.1726 10.4939 15.583 11.0002 15.583Z" fill="url(#paint0_linear_34_1473)"/>
<defs>
<linearGradient id="paint0_linear_34_1473" x1="11.0002" y1="1.83301" x2="11.0002" y2="20.1663" gradientUnits="userSpaceOnUse">
<stop stop-color="#FFFEFF"/>
<stop offset="1" stop-color="#737373"/>
</linearGradient>
</defs>
</svg>
