<svg width="22" height="22" viewBox="0 0 22 22" fill="none" xmlns="http://www.w3.org/2000/svg">
<path d="M9.16683 20.1669H12.8335C16.2904 20.1669 18.019 20.1669 19.0929 19.093C20.1668 18.0191 20.1668 16.2905 20.1668 12.8336C20.1668 9.37667 20.1668 7.64816 19.0929 6.57422C18.7605 6.24183 18.3649 6.01232 17.8748 5.85384C17.8752 6.00924 17.8752 6.16816 17.8752 6.32982V8.30808C17.8752 8.335 17.8754 8.36431 17.8757 8.39577C17.8784 8.70785 17.883 9.23092 17.6588 9.70942C17.4347 10.188 17.03 10.5194 16.7885 10.7171C16.7643 10.7368 16.7412 10.7557 16.7208 10.7728L15.3398 11.9236C14.5508 12.5812 13.8639 13.1536 13.2465 13.5507C12.581 13.9788 11.861 14.2954 11.0002 14.2954C10.1393 14.2954 9.41946 13.9788 8.75386 13.5507C8.13639 13.1536 7.44956 12.5812 6.66054 11.9236L5.27958 10.7728C5.2589 10.7556 5.23623 10.737 5.21188 10.7171C4.97039 10.5194 4.56568 10.188 4.34153 9.70942C4.11739 9.23092 4.12194 8.70785 4.12465 8.39577C4.12492 8.36432 4.12517 8.33499 4.12517 8.30808V6.32982C4.12515 6.16795 4.12514 6.00909 4.12553 5.85352C3.63545 6.01201 3.24005 6.2416 2.90744 6.57422C1.8335 7.64816 1.8335 9.37667 1.8335 12.8336C1.8335 16.2905 1.8335 18.0191 2.90744 19.093C3.98137 20.1669 5.70987 20.1669 9.16683 20.1669Z" fill="url(#paint0_linear_90_467)"/>
<path fill-rule="evenodd" clip-rule="evenodd" d="M6.15993 9.71607L7.47925 10.8155C9.16283 12.2185 10.0046 12.92 11.0003 12.92C11.9959 12.92 12.8377 12.2185 14.5213 10.8155L15.8406 9.71607C16.165 9.44574 16.3272 9.31062 16.4137 9.12581C16.5003 8.94103 16.5003 8.72991 16.5003 8.30765V6.41634C16.5003 6.12243 16.5003 5.8485 16.4985 5.59289C16.4878 3.96939 16.409 3.08413 15.8291 2.50422C15.1578 1.83301 14.0775 1.83301 11.9169 1.83301H10.0836C7.92299 1.83301 6.84269 1.83301 6.17148 2.50422C5.59157 3.08413 5.51099 3.96939 5.50027 5.59289C5.49857 5.8485 5.50027 6.12243 5.50027 6.41634V8.30765C5.50027 8.72991 5.50027 8.94103 5.58681 9.12581C5.67335 9.31062 5.83554 9.44574 6.15993 9.71607ZM8.47935 5.49967C8.47935 5.11998 8.78716 4.81217 9.16685 4.81217H12.8335C13.2132 4.81217 13.521 5.11998 13.521 5.49967C13.521 5.87937 13.2132 6.18717 12.8335 6.18717H9.16685C8.78716 6.18717 8.47935 5.87937 8.47935 5.49967ZM9.39602 8.24967C9.39602 7.86998 9.70383 7.56217 10.0835 7.56217H11.9168C12.2965 7.56217 12.6043 7.86998 12.6043 8.24967C12.6043 8.62937 12.2965 8.93717 11.9168 8.93717H10.0835C9.70383 8.93717 9.39602 8.62937 9.39602 8.24967Z" fill="url(#paint1_linear_90_467)"/>
<defs>
<linearGradient id="paint0_linear_90_467" x1="11.0002" y1="5.85352" x2="11.0002" y2="20.1669" gradientUnits="userSpaceOnUse">
<stop stop-color="#FFFEFF"/>
<stop offset="1" stop-color="#737373"/>
</linearGradient>
<linearGradient id="paint1_linear_90_467" x1="10.9999" y1="1.83301" x2="10.9999" y2="12.92" gradientUnits="userSpaceOnUse">
<stop stop-color="#FFFEFF"/>
<stop offset="1" stop-color="#737373"/>
</linearGradient>
</defs>
</svg>
