<svg width="22" height="22" viewBox="0 0 22 22" fill="none" xmlns="http://www.w3.org/2000/svg">
<path d="M8.39056 4.95736C9.55165 2.87446 10.1322 1.83301 11.0002 1.83301C11.8682 1.83301 12.4487 2.87445 13.6097 4.95735L13.9101 5.49622C14.2401 6.08811 14.405 6.38407 14.6623 6.57933C14.9196 6.7746 15.2398 6.84708 15.8806 6.99205L16.464 7.12403C18.7186 7.63419 19.846 7.88926 20.1142 8.75176C20.3824 9.61422 19.6139 10.513 18.0767 12.3104L17.6791 12.7754C17.2423 13.2862 17.0239 13.5416 16.9256 13.8576C16.8274 14.1735 16.8604 14.5143 16.9264 15.1958L16.9865 15.8162C17.2189 18.2144 17.3352 19.4135 16.633 19.9465C15.9307 20.4796 14.8752 19.9935 12.7641 19.0216L12.218 18.7701C11.6181 18.4939 11.3182 18.3557 11.0002 18.3557C10.6822 18.3557 10.3822 18.4939 9.78237 18.7701L9.23622 19.0216C7.12512 19.9935 6.06958 20.4796 5.36739 19.9465C4.66519 19.4135 4.78139 18.2144 5.01378 15.8162L5.0739 15.1958C5.13994 14.5143 5.17296 14.1735 5.0747 13.8576C4.97645 13.5416 4.75806 13.2862 4.32126 12.7754L3.92359 12.3104C2.38648 10.513 1.61792 9.61422 1.88613 8.75176C2.15435 7.88926 3.2817 7.63419 5.53641 7.12403L6.11973 6.99205C6.76044 6.84708 7.0808 6.7746 7.33803 6.57933C7.59525 6.38407 7.76023 6.08812 8.09018 5.49622L8.39056 4.95736Z" fill="url(#paint0_linear_31_1343)"/>
<defs>
<linearGradient id="paint0_linear_31_1343" x1="11.0002" y1="1.83301" x2="11.0002" y2="20.1663" gradientUnits="userSpaceOnUse">
<stop stop-color="#FFFEFF"/>
<stop offset="1" stop-color="#737373"/>
</linearGradient>
</defs>
</svg>
