<svg preserveAspectRatio="none" width="100%" height="100%" overflow="visible" style="display: block;" viewBox="0 0 24 24" fill="none" xmlns="http://www.w3.org/2000/svg">
<g id="email-svgrepo-com 1">
<path id="Vector" opacity="0.5" d="M16.3635 11.9998C16.3635 14.4098 14.4098 16.3635 11.9998 16.3635C9.58985 16.3635 7.63619 14.4098 7.63619 11.9998C7.63619 9.58985 9.58985 7.63619 11.9998 7.63619C14.4098 7.63619 16.3635 9.58985 16.3635 11.9998ZM16.3635 11.9998V13.6362C16.3635 15.1424 17.5845 16.3635 19.0907 16.3635C20.597 16.3635 21.818 15.1424 21.818 13.6362V11.9998C21.818 6.57739 17.4223 2.18164 11.9998 2.18164C6.57739 2.18164 2.18164 6.57739 2.18164 11.9998C2.18164 17.4223 6.57739 21.818 11.9998 21.818H16.3635" stroke="white" stroke-width="2" stroke-linecap="round" stroke-linejoin="round"/>
</g>
</svg>
