<svg preserveAspectRatio="none" width="100%" height="100%" overflow="visible" style="display: block;" viewBox="0 0 24 24" fill="none" xmlns="http://www.w3.org/2000/svg">
<g id="telegram-svgrepo-com 1">
<path id="Vector" opacity="0.5" d="M21.8601 2.55185C21.8601 2.55185 24.0593 1.69431 23.876 3.77692C23.8149 4.63448 23.2651 7.6359 22.8375 10.8823L21.3713 20.4992C21.3713 20.4992 21.2492 21.908 20.1495 22.153C19.0499 22.398 17.4005 21.2955 17.095 21.0504C16.8507 20.8667 12.5134 18.1103 10.9861 16.7627C10.5584 16.3952 10.0697 15.6601 11.0471 14.8026L17.4616 8.67724C18.1947 7.94218 18.9278 6.22708 15.8732 8.30971L7.3207 14.1288C7.3207 14.1288 6.34326 14.7413 4.5106 14.19L0.539746 12.965C0.539746 12.965 -0.926411 12.0462 1.57827 11.1273C7.68726 8.24841 15.2013 5.30824 21.8601 2.55185Z" fill="white"/>
</g>
</svg>
